G75*
G70*
%OFA0B0*%
%FSLAX24Y24*%
%IPPOS*%
%LPD*%
%AMOC8*
5,1,8,0,0,1.08239X$1,22.5*
%
%ADD10R,0.0276X0.0354*%
%ADD11R,0.0551X0.0630*%
%ADD12R,0.0354X0.0276*%
%ADD13R,0.0315X0.0315*%
%ADD14R,0.0591X0.0197*%
%ADD15R,0.0197X0.0591*%
%ADD16R,0.0748X0.0433*%
%ADD17R,0.0709X0.0394*%
%ADD18R,0.0472X0.0217*%
%ADD19R,0.0138X0.0551*%
%ADD20R,0.0709X0.0748*%
%ADD21R,0.0669X0.0335*%
%ADD22C,0.0640*%
%ADD23C,0.0740*%
%ADD24C,0.0160*%
%ADD25C,0.0436*%
%ADD26C,0.0120*%
%ADD27C,0.0300*%
%ADD28C,0.0100*%
%ADD29C,0.0240*%
D10*
X001024Y003480D03*
X001536Y003480D03*
X003024Y004380D03*
X003536Y004380D03*
X004624Y002780D03*
X005136Y002780D03*
X003436Y008780D03*
X003436Y009280D03*
X002924Y009280D03*
X002924Y008780D03*
X003924Y010880D03*
X004436Y010880D03*
X006724Y009680D03*
X007236Y009680D03*
X008924Y011180D03*
X009436Y011180D03*
X007536Y011680D03*
X007024Y011680D03*
D11*
X007029Y010780D03*
X008131Y010780D03*
X004131Y011680D03*
X003029Y011680D03*
D12*
X003780Y010436D03*
X003780Y009924D03*
X004980Y009136D03*
X004980Y008624D03*
X007980Y009424D03*
X007980Y009936D03*
X007580Y012324D03*
X007580Y012836D03*
X001080Y002936D03*
X001080Y002424D03*
X005680Y001836D03*
X005680Y001324D03*
X008880Y001824D03*
X008880Y002336D03*
D13*
X004980Y001575D03*
X004980Y000985D03*
X003775Y012580D03*
X003185Y012580D03*
D14*
G36*
X006013Y008430D02*
X005596Y008845D01*
X005735Y008984D01*
X006152Y008569D01*
X006013Y008430D01*
G37*
G36*
X005791Y008207D02*
X005374Y008622D01*
X005513Y008761D01*
X005930Y008346D01*
X005791Y008207D01*
G37*
G36*
X005568Y007984D02*
X005151Y008399D01*
X005290Y008538D01*
X005707Y008123D01*
X005568Y007984D01*
G37*
G36*
X005346Y007761D02*
X004929Y008176D01*
X005068Y008315D01*
X005485Y007900D01*
X005346Y007761D01*
G37*
G36*
X005124Y007538D02*
X004707Y007953D01*
X004846Y008092D01*
X005263Y007677D01*
X005124Y007538D01*
G37*
G36*
X004902Y007315D02*
X004485Y007730D01*
X004624Y007869D01*
X005041Y007454D01*
X004902Y007315D01*
G37*
G36*
X004679Y007092D02*
X004262Y007507D01*
X004401Y007646D01*
X004818Y007231D01*
X004679Y007092D01*
G37*
G36*
X004457Y006869D02*
X004040Y007284D01*
X004179Y007423D01*
X004596Y007008D01*
X004457Y006869D01*
G37*
G36*
X004235Y006646D02*
X003818Y007061D01*
X003957Y007200D01*
X004374Y006785D01*
X004235Y006646D01*
G37*
G36*
X004012Y006422D02*
X003595Y006837D01*
X003734Y006976D01*
X004151Y006561D01*
X004012Y006422D01*
G37*
G36*
X003790Y006199D02*
X003373Y006614D01*
X003512Y006753D01*
X003929Y006338D01*
X003790Y006199D01*
G37*
G36*
X007025Y002976D02*
X006608Y003391D01*
X006747Y003530D01*
X007164Y003115D01*
X007025Y002976D01*
G37*
G36*
X007247Y003199D02*
X006830Y003614D01*
X006969Y003753D01*
X007386Y003338D01*
X007247Y003199D01*
G37*
G36*
X007470Y003422D02*
X007053Y003837D01*
X007192Y003976D01*
X007609Y003561D01*
X007470Y003422D01*
G37*
G36*
X007692Y003645D02*
X007275Y004060D01*
X007414Y004199D01*
X007831Y003784D01*
X007692Y003645D01*
G37*
G36*
X007914Y003868D02*
X007497Y004283D01*
X007636Y004422D01*
X008053Y004007D01*
X007914Y003868D01*
G37*
G36*
X008136Y004091D02*
X007719Y004506D01*
X007858Y004645D01*
X008275Y004230D01*
X008136Y004091D01*
G37*
G36*
X008359Y004314D02*
X007942Y004729D01*
X008081Y004868D01*
X008498Y004453D01*
X008359Y004314D01*
G37*
G36*
X008581Y004537D02*
X008164Y004952D01*
X008303Y005091D01*
X008720Y004676D01*
X008581Y004537D01*
G37*
G36*
X008803Y004760D02*
X008386Y005175D01*
X008525Y005314D01*
X008942Y004899D01*
X008803Y004760D01*
G37*
G36*
X009026Y004984D02*
X008609Y005399D01*
X008748Y005538D01*
X009165Y005123D01*
X009026Y004984D01*
G37*
G36*
X009248Y005207D02*
X008831Y005622D01*
X008970Y005761D01*
X009387Y005346D01*
X009248Y005207D01*
G37*
D15*
G36*
X008969Y006208D02*
X008830Y006347D01*
X009245Y006764D01*
X009384Y006625D01*
X008969Y006208D01*
G37*
G36*
X008746Y006430D02*
X008607Y006569D01*
X009022Y006986D01*
X009161Y006847D01*
X008746Y006430D01*
G37*
G36*
X008523Y006653D02*
X008384Y006792D01*
X008799Y007209D01*
X008938Y007070D01*
X008523Y006653D01*
G37*
G36*
X008300Y006875D02*
X008161Y007014D01*
X008576Y007431D01*
X008715Y007292D01*
X008300Y006875D01*
G37*
G36*
X008077Y007097D02*
X007938Y007236D01*
X008353Y007653D01*
X008492Y007514D01*
X008077Y007097D01*
G37*
G36*
X007854Y007319D02*
X007715Y007458D01*
X008130Y007875D01*
X008269Y007736D01*
X007854Y007319D01*
G37*
G36*
X007631Y007542D02*
X007492Y007681D01*
X007907Y008098D01*
X008046Y007959D01*
X007631Y007542D01*
G37*
G36*
X007408Y007764D02*
X007269Y007903D01*
X007684Y008320D01*
X007823Y008181D01*
X007408Y007764D01*
G37*
G36*
X007185Y007986D02*
X007046Y008125D01*
X007461Y008542D01*
X007600Y008403D01*
X007185Y007986D01*
G37*
G36*
X006961Y008209D02*
X006822Y008348D01*
X007237Y008765D01*
X007376Y008626D01*
X006961Y008209D01*
G37*
G36*
X006738Y008431D02*
X006599Y008570D01*
X007014Y008987D01*
X007153Y008848D01*
X006738Y008431D01*
G37*
G36*
X003515Y005196D02*
X003376Y005335D01*
X003791Y005752D01*
X003930Y005613D01*
X003515Y005196D01*
G37*
G36*
X003738Y004974D02*
X003599Y005113D01*
X004014Y005530D01*
X004153Y005391D01*
X003738Y004974D01*
G37*
G36*
X003961Y004751D02*
X003822Y004890D01*
X004237Y005307D01*
X004376Y005168D01*
X003961Y004751D01*
G37*
G36*
X004184Y004529D02*
X004045Y004668D01*
X004460Y005085D01*
X004599Y004946D01*
X004184Y004529D01*
G37*
G36*
X004407Y004307D02*
X004268Y004446D01*
X004683Y004863D01*
X004822Y004724D01*
X004407Y004307D01*
G37*
G36*
X004630Y004085D02*
X004491Y004224D01*
X004906Y004641D01*
X005045Y004502D01*
X004630Y004085D01*
G37*
G36*
X004853Y003862D02*
X004714Y004001D01*
X005129Y004418D01*
X005268Y004279D01*
X004853Y003862D01*
G37*
G36*
X005076Y003640D02*
X004937Y003779D01*
X005352Y004196D01*
X005491Y004057D01*
X005076Y003640D01*
G37*
G36*
X005299Y003418D02*
X005160Y003557D01*
X005575Y003974D01*
X005714Y003835D01*
X005299Y003418D01*
G37*
G36*
X005523Y003195D02*
X005384Y003334D01*
X005799Y003751D01*
X005938Y003612D01*
X005523Y003195D01*
G37*
G36*
X005746Y002973D02*
X005607Y003112D01*
X006022Y003529D01*
X006161Y003390D01*
X005746Y002973D01*
G37*
D16*
X006552Y002233D03*
X006552Y001327D03*
X008008Y001327D03*
X008008Y002233D03*
D17*
X005880Y009629D03*
X005880Y010731D03*
D18*
X006092Y011706D03*
X006092Y012080D03*
X006092Y012454D03*
X005068Y012454D03*
X005068Y011706D03*
D19*
X009468Y011937D03*
X009724Y011937D03*
X009980Y011937D03*
X010236Y011937D03*
X010492Y011937D03*
D20*
X011555Y012980D03*
X008405Y012980D03*
D21*
X010020Y010554D03*
X011201Y009767D03*
X010020Y008979D03*
X011201Y008192D03*
X010020Y007404D03*
X011201Y006617D03*
X010020Y005830D03*
X011201Y005042D03*
X010020Y004255D03*
X011201Y003467D03*
X002540Y003467D03*
X001359Y004255D03*
X002540Y005042D03*
X001359Y005830D03*
X002540Y006617D03*
X001359Y007404D03*
X002540Y008192D03*
X001359Y008979D03*
X002540Y009767D03*
X001359Y010554D03*
D22*
X001880Y002080D03*
X001880Y001080D03*
X002880Y001080D03*
X002880Y002080D03*
X003880Y002080D03*
X003880Y001080D03*
D23*
X012280Y000880D03*
X012280Y001880D03*
X012280Y002880D03*
X012280Y003880D03*
X012280Y004880D03*
X012280Y005880D03*
X012280Y006880D03*
X012280Y007880D03*
X012280Y008880D03*
X012280Y009880D03*
D24*
X000417Y000494D02*
X000394Y000517D01*
X000382Y000547D01*
X000380Y000563D01*
X000380Y013396D01*
X000383Y013417D01*
X000403Y013453D01*
X000439Y013473D01*
X000460Y013476D01*
X007918Y013476D01*
X007907Y013465D01*
X007883Y013423D01*
X007871Y013378D01*
X007871Y013143D01*
X007840Y013174D01*
X007320Y013174D01*
X007262Y013116D01*
X003975Y013116D01*
X003873Y013073D01*
X003737Y012937D01*
X003535Y012937D01*
X003466Y012868D01*
X003453Y012882D01*
X003412Y012905D01*
X003366Y012917D01*
X003185Y012917D01*
X003185Y012580D01*
X003185Y012243D01*
X003366Y012243D01*
X003412Y012255D01*
X003453Y012278D01*
X003466Y012292D01*
X003535Y012223D01*
X004016Y012223D01*
X004133Y012340D01*
X004133Y012541D01*
X004147Y012556D01*
X004632Y012556D01*
X004632Y012263D01*
X004749Y012146D01*
X005387Y012146D01*
X005504Y012263D01*
X005504Y012556D01*
X005656Y012556D01*
X005656Y012263D01*
X005682Y012236D01*
X005676Y012212D01*
X005676Y012080D01*
X005676Y011948D01*
X005682Y011924D01*
X005656Y011897D01*
X005656Y011515D01*
X005694Y011477D01*
X005622Y011304D01*
X005600Y011250D01*
X005600Y011250D01*
X005600Y011250D01*
X005600Y011194D01*
X005600Y011128D01*
X005443Y011128D01*
X005326Y011011D01*
X005326Y010451D01*
X005443Y010334D01*
X006317Y010334D01*
X006434Y010451D01*
X006434Y011011D01*
X006317Y011128D01*
X006160Y011128D01*
X006160Y011138D01*
X006267Y011398D01*
X006411Y011398D01*
X006413Y011400D01*
X006436Y011400D01*
X006539Y011443D01*
X006617Y011521D01*
X006706Y011610D01*
X006706Y011479D01*
X006719Y011433D01*
X006742Y011392D01*
X006776Y011359D01*
X006817Y011335D01*
X006863Y011323D01*
X007024Y011323D01*
X007024Y011680D01*
X007024Y011680D01*
X007024Y011323D01*
X007186Y011323D01*
X007231Y011335D01*
X007264Y011354D01*
X007315Y011303D01*
X007517Y011303D01*
X007601Y011219D01*
X007656Y011109D01*
X007656Y010382D01*
X007773Y010265D01*
X008187Y010265D01*
X008200Y010249D01*
X008181Y010254D01*
X007980Y010254D01*
X007779Y010254D01*
X007733Y010241D01*
X007692Y010218D01*
X007659Y010184D01*
X007635Y010143D01*
X007623Y010097D01*
X007623Y009936D01*
X007980Y009936D01*
X007980Y010254D01*
X007980Y009936D01*
X007980Y009936D01*
X007980Y009936D01*
X008337Y009936D01*
X008337Y010078D01*
X009100Y009132D01*
X009100Y007192D01*
X008916Y007376D01*
X008693Y007598D01*
X008470Y007820D01*
X008470Y007820D01*
X008247Y008043D01*
X008024Y008265D01*
X007871Y008417D01*
X008141Y008687D01*
X008142Y008687D01*
X008181Y008727D01*
X008220Y008765D01*
X008220Y008766D01*
X008220Y008767D01*
X008241Y008818D01*
X008262Y008868D01*
X008262Y008869D01*
X008262Y008870D01*
X008262Y008925D01*
X008262Y008980D01*
X008262Y008980D01*
X008261Y009108D01*
X008357Y009203D01*
X008357Y009645D01*
X008306Y009696D01*
X008325Y009729D01*
X008337Y009774D01*
X008337Y009936D01*
X007980Y009936D01*
X007980Y009936D01*
X007623Y009936D01*
X007623Y009774D01*
X007635Y009729D01*
X007654Y009696D01*
X007603Y009645D01*
X007603Y009203D01*
X007701Y009105D01*
X007702Y009040D01*
X007460Y008798D01*
X007435Y008823D01*
X007099Y008487D01*
X007099Y008487D01*
X006764Y008150D01*
X006844Y008070D01*
X006845Y008042D01*
X007068Y007819D01*
X007291Y007597D01*
X007291Y007597D01*
X007514Y007375D01*
X007514Y007375D01*
X007737Y007152D01*
X007960Y006930D01*
X007960Y006930D01*
X008183Y006708D01*
X008183Y006708D01*
X008440Y006452D01*
X008468Y006452D01*
X008549Y006372D01*
X008884Y006708D01*
X008884Y006708D01*
X008549Y006372D01*
X008562Y006358D01*
X008130Y005926D01*
X006660Y007396D01*
X006660Y008064D01*
X006755Y008159D01*
X006764Y008150D01*
X007099Y008487D01*
X007435Y008823D01*
X007354Y008904D01*
X007354Y008932D01*
X007098Y009188D01*
X006932Y009188D01*
X006398Y008652D01*
X006398Y008594D01*
X006353Y008549D01*
X006353Y008652D01*
X005817Y009186D01*
X005660Y009185D01*
X005660Y009232D01*
X006317Y009232D01*
X006434Y009349D01*
X006457Y009349D01*
X006503Y009303D01*
X006945Y009303D01*
X006996Y009354D01*
X007029Y009335D01*
X007074Y009323D01*
X007236Y009323D01*
X007397Y009323D01*
X007443Y009335D01*
X007484Y009359D01*
X007518Y009392D01*
X007541Y009433D01*
X007554Y009479D01*
X007554Y009680D01*
X007554Y009881D01*
X007541Y009927D01*
X007518Y009968D01*
X007484Y010001D01*
X007443Y010025D01*
X007397Y010037D01*
X007236Y010037D01*
X007236Y009680D01*
X007554Y009680D01*
X007236Y009680D01*
X007236Y009680D01*
X007236Y009680D01*
X007236Y009323D01*
X007236Y009680D01*
X007236Y009680D01*
X007236Y010037D01*
X007074Y010037D01*
X007029Y010025D01*
X006996Y010006D01*
X006945Y010057D01*
X006503Y010057D01*
X006395Y009948D01*
X006317Y010026D01*
X005443Y010026D01*
X005334Y009917D01*
X005256Y009995D01*
X005298Y010097D01*
X005298Y010263D01*
X005234Y010417D01*
X005117Y010534D01*
X004963Y010598D01*
X004797Y010598D01*
X004643Y010534D01*
X004526Y010417D01*
X004462Y010263D01*
X004462Y010130D01*
X004433Y010100D01*
X004360Y010027D01*
X004320Y009932D01*
X004320Y008430D01*
X004260Y008490D01*
X004260Y009889D01*
X004263Y009897D01*
X004260Y009944D01*
X004260Y009980D01*
X004258Y009986D01*
X004256Y010008D01*
X004208Y010108D01*
X004124Y010182D01*
X004117Y010185D01*
X004106Y010196D01*
X004125Y010229D01*
X004137Y010274D01*
X004137Y010436D01*
X004137Y010503D01*
X004145Y010503D01*
X004196Y010554D01*
X004229Y010535D01*
X004274Y010523D01*
X004436Y010523D01*
X004597Y010523D01*
X004643Y010535D01*
X004684Y010559D01*
X004718Y010592D01*
X004741Y010633D01*
X004754Y010679D01*
X004754Y010880D01*
X004754Y011081D01*
X004741Y011127D01*
X004718Y011168D01*
X004684Y011201D01*
X004643Y011225D01*
X004597Y011237D01*
X004562Y011237D01*
X004607Y011282D01*
X004607Y011400D01*
X004747Y011400D01*
X004749Y011398D01*
X005387Y011398D01*
X005504Y011515D01*
X005504Y011897D01*
X005387Y012014D01*
X004749Y012014D01*
X004695Y011960D01*
X004607Y011960D01*
X004607Y012078D01*
X004490Y012195D01*
X003773Y012195D01*
X003656Y012078D01*
X003656Y011282D01*
X003692Y011246D01*
X003606Y011160D01*
X001629Y011160D01*
X001526Y011117D01*
X001330Y010921D01*
X000941Y010921D01*
X000824Y010804D01*
X000824Y010304D01*
X000941Y010187D01*
X001776Y010187D01*
X001893Y010304D01*
X001893Y010600D01*
X003424Y010600D01*
X003423Y010597D01*
X003423Y010436D01*
X003780Y010436D01*
X003780Y010436D01*
X004137Y010436D01*
X003780Y010436D01*
X003780Y010436D01*
X003423Y010436D01*
X003423Y010274D01*
X003435Y010229D01*
X003454Y010196D01*
X003403Y010145D01*
X003403Y009703D01*
X003469Y009637D01*
X003436Y009637D01*
X003436Y009280D01*
X003436Y009280D01*
X003436Y009637D01*
X003274Y009637D01*
X003229Y009625D01*
X003196Y009606D01*
X003145Y009657D01*
X003074Y009657D01*
X003074Y010017D01*
X002957Y010134D01*
X002122Y010134D01*
X002005Y010017D01*
X002005Y009651D01*
X001850Y009524D01*
X001838Y009519D01*
X001812Y009492D01*
X001783Y009468D01*
X001777Y009457D01*
X001768Y009448D01*
X001754Y009414D01*
X001736Y009381D01*
X001735Y009368D01*
X001730Y009356D01*
X001730Y009347D01*
X000941Y009347D01*
X000824Y009229D01*
X000824Y008820D01*
X000687Y008683D01*
X000667Y008634D01*
X000560Y008527D01*
X000520Y008432D01*
X000520Y003672D01*
X000560Y003577D01*
X000633Y003504D01*
X000686Y003450D01*
X000686Y003220D01*
X000726Y003180D01*
X000703Y003157D01*
X000703Y002715D01*
X000754Y002664D01*
X000735Y002631D01*
X000723Y002586D01*
X000723Y002424D01*
X000723Y002263D01*
X000735Y002217D01*
X000759Y002176D01*
X000792Y002142D01*
X000833Y002119D01*
X000879Y002106D01*
X001080Y002106D01*
X001281Y002106D01*
X001327Y002119D01*
X001368Y002142D01*
X001387Y002161D01*
X001380Y002119D01*
X001380Y002089D01*
X001871Y002089D01*
X001871Y002580D01*
X001841Y002580D01*
X001763Y002568D01*
X001688Y002543D01*
X001618Y002508D01*
X001554Y002461D01*
X001499Y002406D01*
X001452Y002342D01*
X001437Y002312D01*
X001437Y002424D01*
X001080Y002424D01*
X001080Y002106D01*
X001080Y002424D01*
X001080Y002424D01*
X000723Y002424D01*
X001080Y002424D01*
X001080Y002424D01*
X001080Y002424D01*
X001437Y002424D01*
X001437Y002586D01*
X001425Y002631D01*
X001406Y002664D01*
X001457Y002715D01*
X001457Y003103D01*
X001757Y003103D01*
X001874Y003220D01*
X001874Y003450D01*
X001944Y003520D01*
X002025Y003520D01*
X002025Y003471D01*
X002536Y003471D01*
X002536Y003464D01*
X002025Y003464D01*
X002025Y003276D01*
X002037Y003231D01*
X002061Y003190D01*
X002095Y003156D01*
X002136Y003132D01*
X002181Y003120D01*
X002536Y003120D01*
X002536Y003464D01*
X002544Y003464D01*
X002920Y003464D01*
X002920Y003471D01*
X002544Y003471D01*
X002544Y003464D01*
X002544Y003120D01*
X002898Y003120D01*
X002944Y003132D01*
X002957Y003140D01*
X002960Y003133D01*
X003033Y003060D01*
X003128Y003020D01*
X003232Y003020D01*
X003256Y003030D01*
X004286Y003030D01*
X004286Y002520D01*
X004344Y002462D01*
X004344Y002318D01*
X004321Y002375D01*
X004175Y002521D01*
X003983Y002600D01*
X003777Y002600D01*
X003585Y002521D01*
X003439Y002375D01*
X003380Y002232D01*
X003321Y002375D01*
X003175Y002521D01*
X002983Y002600D01*
X002777Y002600D01*
X002585Y002521D01*
X002439Y002375D01*
X002367Y002200D01*
X002343Y002272D01*
X002308Y002342D01*
X002261Y002406D01*
X002206Y002461D01*
X002142Y002508D01*
X002072Y002543D01*
X001997Y002568D01*
X001919Y002580D01*
X001889Y002580D01*
X001889Y002089D01*
X001871Y002089D01*
X001871Y002071D01*
X001380Y002071D01*
X001380Y002041D01*
X001392Y001963D01*
X001417Y001888D01*
X001452Y001818D01*
X001499Y001754D01*
X001554Y001699D01*
X001618Y001652D01*
X001688Y001617D01*
X001760Y001593D01*
X001585Y001521D01*
X001439Y001375D01*
X001360Y001183D01*
X001360Y000977D01*
X001439Y000785D01*
X001585Y000639D01*
X001777Y000560D01*
X001983Y000560D01*
X002175Y000639D01*
X002321Y000785D01*
X002380Y000928D01*
X002439Y000785D01*
X002585Y000639D01*
X002777Y000560D01*
X002983Y000560D01*
X003175Y000639D01*
X003321Y000785D01*
X003380Y000928D01*
X003439Y000785D01*
X003585Y000639D01*
X003777Y000560D01*
X003983Y000560D01*
X004175Y000639D01*
X004321Y000785D01*
X004400Y000977D01*
X004400Y001001D01*
X004532Y000839D01*
X004538Y000826D01*
X004567Y000797D01*
X004594Y000764D01*
X004606Y000758D01*
X004617Y000747D01*
X004623Y000745D01*
X004623Y000744D01*
X004740Y000627D01*
X005220Y000627D01*
X005337Y000744D01*
X005337Y001113D01*
X005359Y001076D01*
X005392Y001042D01*
X005433Y001019D01*
X005479Y001006D01*
X005680Y001006D01*
X005680Y001324D01*
X005680Y001006D01*
X005881Y001006D01*
X005927Y001019D01*
X005968Y001042D01*
X005978Y001052D01*
X005978Y001028D01*
X006095Y000911D01*
X007009Y000911D01*
X007126Y001028D01*
X007126Y001627D01*
X007009Y001744D01*
X006668Y001744D01*
X006596Y001816D01*
X007009Y001816D01*
X007126Y001933D01*
X007126Y002400D01*
X007434Y002400D01*
X007434Y001933D01*
X007551Y001816D01*
X008465Y001816D01*
X008523Y001874D01*
X008523Y001824D01*
X008523Y001686D01*
X008465Y001744D01*
X007551Y001744D01*
X007434Y001627D01*
X007434Y001028D01*
X007551Y000911D01*
X008465Y000911D01*
X008582Y001028D01*
X008582Y001552D01*
X008592Y001542D01*
X008633Y001519D01*
X008679Y001506D01*
X008880Y001506D01*
X008880Y001824D01*
X008880Y001506D01*
X009081Y001506D01*
X009127Y001519D01*
X009168Y001542D01*
X009201Y001576D01*
X009225Y001617D01*
X009237Y001663D01*
X009237Y001824D01*
X008880Y001824D01*
X008880Y001824D01*
X008880Y001824D01*
X008523Y001824D01*
X008880Y001824D01*
X008880Y001824D01*
X009237Y001824D01*
X009237Y001986D01*
X009225Y002031D01*
X009206Y002064D01*
X009257Y002115D01*
X009257Y002420D01*
X010423Y002420D01*
X010460Y002333D01*
X011736Y001056D01*
X011710Y000993D01*
X011710Y000767D01*
X011797Y000557D01*
X011874Y000480D01*
X000463Y000480D01*
X000447Y000482D01*
X000417Y000494D01*
X000386Y000536D02*
X011818Y000536D01*
X011740Y000694D02*
X005287Y000694D01*
X005337Y000853D02*
X011710Y000853D01*
X011717Y001011D02*
X008566Y001011D01*
X008582Y001170D02*
X011623Y001170D01*
X011464Y001328D02*
X008582Y001328D01*
X008582Y001487D02*
X011306Y001487D01*
X011147Y001645D02*
X009232Y001645D01*
X009237Y001804D02*
X010989Y001804D01*
X010830Y001962D02*
X009237Y001962D01*
X009257Y002121D02*
X010672Y002121D01*
X010513Y002279D02*
X009257Y002279D01*
X008880Y002336D02*
X008111Y002336D01*
X008111Y002449D01*
X007880Y002680D01*
X006580Y002680D01*
X006380Y002880D01*
X006352Y003298D02*
X006362Y003308D01*
X006362Y003474D01*
X006139Y003696D01*
X005915Y003918D01*
X005915Y003918D01*
X005692Y004141D01*
X005469Y004363D01*
X005314Y004518D01*
X005499Y004703D01*
X005597Y004662D01*
X005763Y004662D01*
X005917Y004726D01*
X006034Y004843D01*
X006098Y004997D01*
X006098Y005162D01*
X006163Y005162D01*
X006317Y005226D01*
X006434Y005343D01*
X006498Y005497D01*
X006498Y005663D01*
X006434Y005817D01*
X006317Y005934D01*
X006163Y005998D01*
X005997Y005998D01*
X005843Y005934D01*
X005769Y005860D01*
X005485Y005860D01*
X005382Y005817D01*
X005303Y005739D01*
X004683Y005119D01*
X004657Y005144D01*
X004633Y005168D01*
X006365Y006899D01*
X007748Y005516D01*
X006560Y004327D01*
X006520Y004232D01*
X006520Y003752D01*
X006560Y003657D01*
X006589Y003628D01*
X006549Y003588D01*
X006463Y003502D01*
X006439Y003461D01*
X006427Y003415D01*
X006427Y003367D01*
X006440Y003322D01*
X006453Y003298D01*
X006352Y003298D01*
X006362Y003389D02*
X006427Y003389D01*
X006508Y003547D02*
X006288Y003547D01*
X006139Y003696D02*
X006139Y003696D01*
X006129Y003706D02*
X006539Y003706D01*
X006549Y003588D02*
X006886Y003253D01*
X006886Y003253D01*
X006549Y003588D01*
X006590Y003547D02*
X006590Y003547D01*
X006750Y003389D02*
X006750Y003389D01*
X006520Y003864D02*
X005970Y003864D01*
X005811Y004023D02*
X006520Y004023D01*
X006520Y004181D02*
X005652Y004181D01*
X005692Y004141D02*
X005692Y004141D01*
X005493Y004340D02*
X006572Y004340D01*
X006730Y004498D02*
X005334Y004498D01*
X005469Y004363D02*
X005469Y004363D01*
X005453Y004657D02*
X006889Y004657D01*
X007047Y004815D02*
X006006Y004815D01*
X006088Y004974D02*
X007206Y004974D01*
X007364Y005132D02*
X006098Y005132D01*
X006382Y005291D02*
X007523Y005291D01*
X007681Y005449D02*
X006478Y005449D01*
X006498Y005608D02*
X007656Y005608D01*
X007498Y005766D02*
X006456Y005766D01*
X006327Y005925D02*
X007339Y005925D01*
X007181Y006083D02*
X005548Y006083D01*
X005707Y006242D02*
X007022Y006242D01*
X006864Y006400D02*
X005865Y006400D01*
X006024Y006559D02*
X006705Y006559D01*
X006547Y006717D02*
X006182Y006717D01*
X006341Y006876D02*
X006388Y006876D01*
X006380Y007280D02*
X006380Y007280D01*
X008080Y005580D01*
X008180Y005580D01*
X009080Y006480D01*
X009086Y006486D01*
X009107Y006486D02*
X009107Y006507D01*
X009380Y006780D01*
X009380Y008580D01*
X009380Y009231D01*
X008131Y010780D01*
X007831Y011385D01*
X007536Y011680D01*
X007580Y012324D01*
X007477Y012133D01*
X006727Y012133D01*
X006580Y012280D01*
X006580Y011880D01*
X006380Y011680D01*
X006118Y011680D01*
X006092Y011706D01*
X005880Y011194D01*
X005880Y010731D01*
X005600Y011155D02*
X004725Y011155D01*
X004754Y010997D02*
X005326Y010997D01*
X005326Y010838D02*
X004754Y010838D01*
X004754Y010880D02*
X004436Y010880D01*
X004754Y010880D01*
X004754Y010680D02*
X005326Y010680D01*
X005326Y010521D02*
X005130Y010521D01*
X005257Y010363D02*
X005415Y010363D01*
X005298Y010204D02*
X007679Y010204D01*
X007675Y010363D02*
X007453Y010363D01*
X007448Y010355D02*
X007472Y010396D01*
X007484Y010441D01*
X007484Y010722D01*
X007087Y010722D01*
X007087Y010838D01*
X006971Y010838D01*
X006971Y011275D01*
X006730Y011275D01*
X006684Y011263D01*
X006643Y011239D01*
X006609Y011205D01*
X006585Y011164D01*
X006573Y011119D01*
X006573Y010838D01*
X006434Y010838D01*
X006573Y010838D02*
X006971Y010838D01*
X007087Y010838D01*
X007484Y010838D01*
X007656Y010838D01*
X007656Y010680D02*
X007484Y010680D01*
X007484Y010838D02*
X007484Y011119D01*
X007472Y011164D01*
X007448Y011205D01*
X007415Y011239D01*
X007374Y011263D01*
X007328Y011275D01*
X007087Y011275D01*
X007087Y010838D01*
X007087Y010722D02*
X006971Y010722D01*
X006971Y010285D01*
X006730Y010285D01*
X006684Y010297D01*
X006643Y010321D01*
X006609Y010355D01*
X006585Y010396D01*
X006573Y010441D01*
X006573Y010722D01*
X006971Y010722D01*
X006971Y010838D01*
X006971Y010680D02*
X007087Y010680D01*
X007087Y010722D02*
X007087Y010285D01*
X007328Y010285D01*
X007374Y010297D01*
X007415Y010321D01*
X007448Y010355D01*
X007484Y010521D02*
X007656Y010521D01*
X007980Y010204D02*
X007980Y010204D01*
X007980Y010046D02*
X007980Y010046D01*
X007623Y010046D02*
X006956Y010046D01*
X006971Y010363D02*
X007087Y010363D01*
X007087Y010521D02*
X006971Y010521D01*
X006573Y010521D02*
X006434Y010521D01*
X006434Y010680D02*
X006573Y010680D01*
X006573Y010997D02*
X006434Y010997D01*
X006583Y011155D02*
X006167Y011155D01*
X006232Y011314D02*
X007305Y011314D01*
X007087Y011155D02*
X006971Y011155D01*
X006971Y010997D02*
X007087Y010997D01*
X007484Y010997D02*
X007656Y010997D01*
X007633Y011155D02*
X007475Y011155D01*
X007024Y011472D02*
X007024Y011472D01*
X007024Y011631D02*
X007024Y011631D01*
X006708Y011472D02*
X006568Y011472D01*
X006092Y012080D02*
X005676Y012080D01*
X006092Y012080D01*
X006092Y012080D01*
X006092Y012454D02*
X006406Y012454D01*
X006580Y012280D01*
X005676Y012106D02*
X004579Y012106D01*
X004632Y012265D02*
X004058Y012265D01*
X004133Y012423D02*
X004632Y012423D01*
X004031Y012836D02*
X003775Y012580D01*
X004031Y012836D02*
X007580Y012836D01*
X007780Y013180D02*
X008205Y013180D01*
X008405Y012980D01*
X008485Y013057D02*
X011475Y013057D01*
X011475Y013060D02*
X011475Y012900D01*
X011635Y012900D01*
X011635Y013060D01*
X012089Y013060D01*
X012089Y013378D01*
X012077Y013423D01*
X012053Y013465D01*
X012042Y013476D01*
X012673Y013476D01*
X012707Y013468D01*
X012779Y013428D01*
X012830Y013362D01*
X012850Y013291D01*
X012850Y013229D01*
X012842Y013159D01*
X012850Y013148D01*
X012850Y000543D01*
X012848Y000526D01*
X012832Y000498D01*
X012804Y000482D01*
X012788Y000480D01*
X012686Y000480D01*
X012763Y000557D01*
X012850Y000767D01*
X012850Y000993D01*
X012763Y001203D01*
X012603Y001363D01*
X012562Y001380D01*
X012603Y001397D01*
X012763Y001557D01*
X012850Y001767D01*
X012850Y001993D01*
X012763Y002203D01*
X012603Y002363D01*
X012562Y002380D01*
X012603Y002397D01*
X012763Y002557D01*
X012850Y002767D01*
X012850Y002993D01*
X012763Y003203D01*
X012603Y003363D01*
X012562Y003380D01*
X012603Y003397D01*
X012763Y003557D01*
X012850Y003767D01*
X012850Y003993D01*
X012763Y004203D01*
X012603Y004363D01*
X012562Y004380D01*
X012603Y004397D01*
X012763Y004557D01*
X012850Y004767D01*
X012850Y004993D01*
X012763Y005203D01*
X012603Y005363D01*
X012562Y005380D01*
X012603Y005397D01*
X012763Y005557D01*
X012850Y005767D01*
X012850Y005993D01*
X012763Y006203D01*
X012603Y006363D01*
X012562Y006380D01*
X012603Y006397D01*
X012763Y006557D01*
X012850Y006767D01*
X012850Y006993D01*
X012763Y007203D01*
X012603Y007363D01*
X012562Y007380D01*
X012603Y007397D01*
X012763Y007557D01*
X012850Y007767D01*
X012850Y007993D01*
X012763Y008203D01*
X012603Y008363D01*
X012534Y008392D01*
X012568Y008410D01*
X012638Y008460D01*
X012700Y008522D01*
X012750Y008592D01*
X012790Y008669D01*
X012816Y008751D01*
X012830Y008837D01*
X012830Y008860D01*
X012300Y008860D01*
X012300Y008900D01*
X012830Y008900D01*
X012830Y008923D01*
X012816Y009009D01*
X012790Y009091D01*
X012750Y009168D01*
X012700Y009238D01*
X012638Y009300D01*
X012568Y009350D01*
X012534Y009368D01*
X012603Y009397D01*
X012763Y009557D01*
X012850Y009767D01*
X012850Y009993D01*
X012763Y010203D01*
X012603Y010363D01*
X012393Y010450D01*
X012167Y010450D01*
X011957Y010363D01*
X011797Y010203D01*
X011724Y010028D01*
X011619Y010134D01*
X010784Y010134D01*
X010667Y010017D01*
X010667Y009516D01*
X010784Y009399D01*
X011432Y009399D01*
X010872Y008840D01*
X010555Y008840D01*
X010555Y009229D01*
X010438Y009347D01*
X009638Y009347D01*
X009633Y009364D01*
X009623Y009376D01*
X009617Y009390D01*
X009596Y009411D01*
X009596Y009412D02*
X010772Y009412D01*
X010667Y009570D02*
X009466Y009570D01*
X009562Y009452D02*
X009592Y009422D01*
X009596Y009411D01*
X009562Y009452D02*
X008909Y010262D01*
X008963Y010262D01*
X009117Y010326D01*
X009234Y010443D01*
X009298Y010597D01*
X009298Y010763D01*
X009282Y010803D01*
X009486Y010803D01*
X009486Y010304D01*
X009603Y010187D01*
X010438Y010187D01*
X010555Y010304D01*
X010555Y010764D01*
X010634Y010843D01*
X010698Y010997D01*
X010698Y011003D01*
X010797Y010962D01*
X010963Y010962D01*
X011117Y011026D01*
X011234Y011143D01*
X011298Y011297D01*
X011298Y011463D01*
X011234Y011617D01*
X011117Y011734D01*
X010963Y011798D01*
X010914Y011798D01*
X010812Y011901D01*
X010812Y012000D01*
X010763Y012118D01*
X010761Y012120D01*
X010761Y012295D01*
X010644Y012412D01*
X009572Y012412D01*
X009552Y012392D01*
X009468Y012392D01*
X009376Y012392D01*
X009330Y012380D01*
X009289Y012356D01*
X009255Y012323D01*
X009232Y012282D01*
X009219Y012236D01*
X009219Y011937D01*
X009455Y011937D01*
X009455Y011937D01*
X009219Y011937D01*
X009219Y011637D01*
X009232Y011592D01*
X009251Y011557D01*
X009215Y011557D01*
X009180Y011522D01*
X009145Y011557D01*
X008703Y011557D01*
X008586Y011440D01*
X008586Y011198D01*
X008490Y011295D01*
X008188Y011295D01*
X008086Y011501D01*
X008069Y011543D01*
X008062Y011550D01*
X008057Y011559D01*
X008022Y011589D01*
X007874Y011738D01*
X007874Y011940D01*
X007837Y011977D01*
X007838Y011986D01*
X007840Y011986D01*
X007957Y012103D01*
X007957Y012452D01*
X007981Y012438D01*
X008027Y012426D01*
X008325Y012426D01*
X008325Y012900D01*
X008485Y012900D01*
X008485Y012426D01*
X008783Y012426D01*
X008829Y012438D01*
X008870Y012462D01*
X008904Y012495D01*
X008927Y012537D01*
X008940Y012582D01*
X008940Y012900D01*
X008485Y012900D01*
X008485Y013060D01*
X008940Y013060D01*
X008940Y013378D01*
X008927Y013423D01*
X008904Y013465D01*
X008892Y013476D01*
X011068Y013476D01*
X011056Y013465D01*
X011033Y013423D01*
X011020Y013378D01*
X011020Y013060D01*
X011475Y013060D01*
X011475Y012900D02*
X011020Y012900D01*
X011020Y012582D01*
X011033Y012537D01*
X011056Y012495D01*
X011090Y012462D01*
X011131Y012438D01*
X011177Y012426D01*
X011475Y012426D01*
X011475Y012900D01*
X011475Y012899D02*
X011635Y012899D01*
X011635Y012900D02*
X011635Y012426D01*
X011933Y012426D01*
X011979Y012438D01*
X012020Y012462D01*
X012053Y012495D01*
X012077Y012537D01*
X012089Y012582D01*
X012089Y012900D01*
X011635Y012900D01*
X011635Y013057D02*
X012850Y013057D01*
X012850Y012899D02*
X012089Y012899D01*
X012089Y012740D02*
X012850Y012740D01*
X012850Y012582D02*
X012089Y012582D01*
X011635Y012582D02*
X011475Y012582D01*
X011475Y012740D02*
X011635Y012740D01*
X012089Y013216D02*
X012848Y013216D01*
X012821Y013374D02*
X012089Y013374D01*
X012850Y012423D02*
X007957Y012423D01*
X007957Y012265D02*
X009227Y012265D01*
X009219Y012106D02*
X007957Y012106D01*
X007866Y011948D02*
X009219Y011948D01*
X009219Y011789D02*
X007874Y011789D01*
X007981Y011631D02*
X009221Y011631D01*
X009536Y011280D02*
X009436Y011180D01*
X009536Y011280D02*
X009680Y011280D01*
X009980Y011580D01*
X009980Y011937D01*
X010236Y011937D02*
X010236Y011124D01*
X010280Y011080D01*
X010629Y010838D02*
X012850Y010838D01*
X012850Y010680D02*
X010555Y010680D01*
X010555Y010521D02*
X012850Y010521D01*
X012850Y010363D02*
X012604Y010363D01*
X012762Y010204D02*
X012850Y010204D01*
X012850Y010046D02*
X012828Y010046D01*
X012850Y009887D02*
X012850Y009887D01*
X012834Y009729D02*
X012850Y009729D01*
X012850Y009570D02*
X012769Y009570D01*
X012850Y009412D02*
X012618Y009412D01*
X012685Y009253D02*
X012850Y009253D01*
X012850Y009095D02*
X012788Y009095D01*
X012828Y008936D02*
X012850Y008936D01*
X012850Y008778D02*
X012821Y008778D01*
X012850Y008619D02*
X012764Y008619D01*
X012850Y008461D02*
X012638Y008461D01*
X012664Y008302D02*
X012850Y008302D01*
X012850Y008144D02*
X012788Y008144D01*
X012850Y007985D02*
X012850Y007985D01*
X012850Y007827D02*
X012850Y007827D01*
X012850Y007668D02*
X012809Y007668D01*
X012850Y007510D02*
X012716Y007510D01*
X012615Y007351D02*
X012850Y007351D01*
X012850Y007193D02*
X012768Y007193D01*
X012833Y007034D02*
X012850Y007034D01*
X012850Y006876D02*
X012850Y006876D01*
X012850Y006717D02*
X012829Y006717D01*
X012850Y006559D02*
X012764Y006559D01*
X012850Y006400D02*
X012606Y006400D01*
X012725Y006242D02*
X012850Y006242D01*
X012850Y006083D02*
X012813Y006083D01*
X012850Y005925D02*
X012850Y005925D01*
X012850Y005766D02*
X012850Y005766D01*
X012850Y005608D02*
X012784Y005608D01*
X012850Y005449D02*
X012655Y005449D01*
X012676Y005291D02*
X012850Y005291D01*
X012850Y005132D02*
X012793Y005132D01*
X012850Y004974D02*
X012850Y004974D01*
X012850Y004815D02*
X012850Y004815D01*
X012850Y004657D02*
X012804Y004657D01*
X012850Y004498D02*
X012704Y004498D01*
X012627Y004340D02*
X012850Y004340D01*
X012850Y004181D02*
X012772Y004181D01*
X012838Y004023D02*
X012850Y004023D01*
X012850Y003864D02*
X012850Y003864D01*
X012850Y003706D02*
X012825Y003706D01*
X012850Y003547D02*
X012753Y003547D01*
X012850Y003389D02*
X012583Y003389D01*
X012736Y003230D02*
X012850Y003230D01*
X012850Y003072D02*
X012818Y003072D01*
X012850Y002913D02*
X012850Y002913D01*
X012845Y002755D02*
X012850Y002755D01*
X012850Y002596D02*
X012779Y002596D01*
X012850Y002438D02*
X012644Y002438D01*
X012687Y002279D02*
X012850Y002279D01*
X012850Y002121D02*
X012797Y002121D01*
X012850Y001962D02*
X012850Y001962D01*
X012850Y001804D02*
X012850Y001804D01*
X012850Y001645D02*
X012800Y001645D01*
X012850Y001487D02*
X012693Y001487D01*
X012638Y001328D02*
X012850Y001328D01*
X012850Y001170D02*
X012777Y001170D01*
X012843Y001011D02*
X012850Y001011D01*
X012850Y000853D02*
X012850Y000853D01*
X012850Y000694D02*
X012820Y000694D01*
X012849Y000536D02*
X012742Y000536D01*
X008880Y001645D02*
X008880Y001645D01*
X008880Y001804D02*
X008880Y001804D01*
X008523Y001804D02*
X006608Y001804D01*
X006552Y001464D02*
X006180Y001836D01*
X005680Y001836D01*
X005680Y002380D01*
X004980Y001575D02*
X004624Y001931D01*
X004624Y002780D01*
X004286Y002755D02*
X001457Y002755D01*
X001434Y002596D02*
X002767Y002596D01*
X002993Y002596D02*
X003767Y002596D01*
X003993Y002596D02*
X004286Y002596D01*
X004258Y002438D02*
X004344Y002438D01*
X003880Y002080D02*
X004775Y000985D01*
X004980Y000985D01*
X005337Y001011D02*
X005462Y001011D01*
X005680Y001011D02*
X005680Y001011D01*
X005898Y001011D02*
X005994Y001011D01*
X005680Y001170D02*
X005680Y001170D01*
X005680Y001324D02*
X005680Y001324D01*
X006552Y001327D02*
X006552Y001464D01*
X007126Y001487D02*
X007434Y001487D01*
X007434Y001328D02*
X007126Y001328D01*
X007126Y001170D02*
X007434Y001170D01*
X007451Y001011D02*
X007109Y001011D01*
X007107Y001645D02*
X007453Y001645D01*
X007434Y001962D02*
X007126Y001962D01*
X007126Y002121D02*
X007434Y002121D01*
X007434Y002279D02*
X007126Y002279D01*
X008008Y002233D02*
X008111Y002336D01*
X009366Y005040D02*
X009365Y005068D01*
X009446Y005148D01*
X009532Y005235D01*
X009556Y005276D01*
X009568Y005322D01*
X009568Y005369D01*
X009555Y005415D01*
X009532Y005456D01*
X009306Y005681D01*
X009109Y005484D01*
X009306Y005681D01*
X009177Y005809D01*
X010188Y006820D01*
X010667Y006820D01*
X010667Y006367D01*
X010784Y006250D01*
X011282Y006250D01*
X010460Y005427D01*
X010420Y005332D01*
X010420Y005040D01*
X009366Y005040D01*
X009430Y005132D02*
X010420Y005132D01*
X010420Y005291D02*
X009559Y005291D01*
X009535Y005449D02*
X010481Y005449D01*
X010438Y005462D02*
X010555Y005579D01*
X010555Y006080D01*
X010438Y006197D01*
X009603Y006197D01*
X009486Y006080D01*
X009486Y005579D01*
X009603Y005462D01*
X010438Y005462D01*
X010555Y005608D02*
X010640Y005608D01*
X010555Y005766D02*
X010798Y005766D01*
X010957Y005925D02*
X010555Y005925D01*
X010552Y006083D02*
X011115Y006083D01*
X011274Y006242D02*
X009609Y006242D01*
X009489Y006083D02*
X009451Y006083D01*
X009486Y005925D02*
X009292Y005925D01*
X009220Y005766D02*
X009486Y005766D01*
X009486Y005608D02*
X009379Y005608D01*
X009233Y005608D02*
X009233Y005608D01*
X009109Y005484D02*
X009109Y005484D01*
X009446Y005148D01*
X009109Y005484D01*
X009109Y005484D01*
X009144Y005449D02*
X009144Y005449D01*
X009303Y005291D02*
X009303Y005291D01*
X008446Y006242D02*
X007814Y006242D01*
X007973Y006083D02*
X008287Y006083D01*
X008520Y006400D02*
X007656Y006400D01*
X007497Y006559D02*
X008333Y006559D01*
X008174Y006717D02*
X007339Y006717D01*
X007180Y006876D02*
X008015Y006876D01*
X007856Y007034D02*
X007022Y007034D01*
X006863Y007193D02*
X007697Y007193D01*
X007737Y007152D02*
X007737Y007152D01*
X007537Y007351D02*
X006705Y007351D01*
X006660Y007510D02*
X007378Y007510D01*
X007219Y007668D02*
X006660Y007668D01*
X006660Y007827D02*
X007060Y007827D01*
X007068Y007819D02*
X007068Y007819D01*
X006901Y007985D02*
X006660Y007985D01*
X006740Y008144D02*
X006771Y008144D01*
X006915Y008302D02*
X006915Y008302D01*
X007073Y008461D02*
X007073Y008461D01*
X007099Y008487D02*
X007099Y008487D01*
X007231Y008619D02*
X007231Y008619D01*
X007389Y008778D02*
X007389Y008778D01*
X007350Y008936D02*
X007598Y008936D01*
X007701Y009095D02*
X007191Y009095D01*
X007236Y009412D02*
X007236Y009412D01*
X007236Y009570D02*
X007236Y009570D01*
X007236Y009729D02*
X007236Y009729D01*
X007236Y009887D02*
X007236Y009887D01*
X007552Y009887D02*
X007623Y009887D01*
X007635Y009729D02*
X007554Y009729D01*
X007554Y009570D02*
X007603Y009570D01*
X007603Y009412D02*
X007529Y009412D01*
X007603Y009253D02*
X006338Y009253D01*
X006067Y008936D02*
X006681Y008936D01*
X006523Y008778D02*
X006226Y008778D01*
X006353Y008619D02*
X006398Y008619D01*
X006380Y008180D02*
X006876Y008676D01*
X006876Y008709D01*
X006839Y009095D02*
X005908Y009095D01*
X005880Y009629D02*
X005429Y009629D01*
X005380Y009580D01*
X005380Y008756D01*
X005652Y008484D01*
X005429Y008261D02*
X005067Y008624D01*
X004980Y008624D01*
X004980Y009136D02*
X004980Y009680D01*
X005277Y010046D02*
X006492Y010046D01*
X006605Y010363D02*
X006345Y010363D01*
X006724Y009680D02*
X006673Y009629D01*
X005880Y009629D01*
X004630Y010521D02*
X004163Y010521D01*
X004137Y010363D02*
X004503Y010363D01*
X004462Y010204D02*
X004111Y010204D01*
X004238Y010046D02*
X004378Y010046D01*
X004320Y009887D02*
X004260Y009887D01*
X004260Y009729D02*
X004320Y009729D01*
X004320Y009570D02*
X004260Y009570D01*
X004260Y009412D02*
X004320Y009412D01*
X004320Y009253D02*
X004260Y009253D01*
X004260Y009095D02*
X004320Y009095D01*
X004320Y008936D02*
X004260Y008936D01*
X004260Y008778D02*
X004320Y008778D01*
X004320Y008619D02*
X004260Y008619D01*
X004290Y008461D02*
X004320Y008461D01*
X003980Y008374D02*
X003980Y009924D01*
X003780Y009924D01*
X003980Y009936D01*
X003403Y009887D02*
X003074Y009887D01*
X003046Y010046D02*
X003403Y010046D01*
X003449Y010204D02*
X001794Y010204D01*
X001893Y010363D02*
X003423Y010363D01*
X003423Y010521D02*
X001893Y010521D01*
X001685Y010880D02*
X001359Y010554D01*
X001405Y010997D02*
X000380Y010997D01*
X000380Y011155D02*
X001617Y011155D01*
X001685Y010880D02*
X003924Y010880D01*
X004124Y011673D01*
X004131Y011680D01*
X005042Y011680D01*
X005068Y011706D01*
X005504Y011631D02*
X005656Y011631D01*
X005656Y011789D02*
X005504Y011789D01*
X005454Y011948D02*
X005676Y011948D01*
X005656Y012265D02*
X005504Y012265D01*
X005504Y012423D02*
X005656Y012423D01*
X005692Y011472D02*
X005462Y011472D01*
X005626Y011314D02*
X004607Y011314D01*
X004436Y010880D02*
X004436Y010880D01*
X004436Y010523D01*
X004436Y010880D01*
X004436Y010880D01*
X004436Y010838D02*
X004436Y010838D01*
X004436Y010680D02*
X004436Y010680D01*
X003656Y011314D02*
X003477Y011314D01*
X003472Y011296D02*
X003484Y011341D01*
X003484Y011622D01*
X003087Y011622D01*
X003087Y011738D01*
X003484Y011738D01*
X003484Y012019D01*
X003472Y012064D01*
X003448Y012105D01*
X003415Y012139D01*
X003374Y012163D01*
X003328Y012175D01*
X003087Y012175D01*
X003087Y011738D01*
X002971Y011738D01*
X002971Y012175D01*
X002730Y012175D01*
X002684Y012163D01*
X002643Y012139D01*
X002609Y012105D01*
X002585Y012064D01*
X002573Y012019D01*
X002573Y011738D01*
X002971Y011738D01*
X002971Y011622D01*
X003087Y011622D01*
X003087Y011185D01*
X003328Y011185D01*
X003374Y011197D01*
X003415Y011221D01*
X003448Y011255D01*
X003472Y011296D01*
X003484Y011472D02*
X003656Y011472D01*
X003656Y011631D02*
X003087Y011631D01*
X002971Y011631D02*
X000380Y011631D01*
X000380Y011789D02*
X002573Y011789D01*
X002573Y011948D02*
X000380Y011948D01*
X000380Y012106D02*
X002610Y012106D01*
X002883Y012312D02*
X002860Y012353D01*
X002847Y012399D01*
X002847Y012580D01*
X003185Y012580D01*
X003185Y012580D01*
X003185Y012580D01*
X003185Y012243D01*
X003004Y012243D01*
X002958Y012255D01*
X002917Y012278D01*
X002883Y012312D01*
X002941Y012265D02*
X000380Y012265D01*
X000380Y012423D02*
X002847Y012423D01*
X002847Y012580D02*
X003185Y012580D01*
X003185Y012917D01*
X003004Y012917D01*
X002958Y012905D01*
X002917Y012882D01*
X002883Y012848D01*
X002860Y012807D01*
X002847Y012761D01*
X002847Y012580D01*
X002847Y012582D02*
X000380Y012582D01*
X000380Y012740D02*
X002847Y012740D01*
X002946Y012899D02*
X000380Y012899D01*
X000380Y013057D02*
X003856Y013057D01*
X003496Y012899D02*
X003423Y012899D01*
X003185Y012899D02*
X003185Y012899D01*
X003185Y012740D02*
X003185Y012740D01*
X003185Y012582D02*
X003185Y012582D01*
X003185Y012580D02*
X003185Y012580D01*
X003185Y012423D02*
X003185Y012423D01*
X003185Y012265D02*
X003185Y012265D01*
X003087Y012106D02*
X002971Y012106D01*
X002971Y011948D02*
X003087Y011948D01*
X003087Y011789D02*
X002971Y011789D01*
X002971Y011622D02*
X002573Y011622D01*
X002573Y011341D01*
X002585Y011296D01*
X002609Y011255D01*
X002643Y011221D01*
X002684Y011197D01*
X002730Y011185D01*
X002971Y011185D01*
X002971Y011622D01*
X002971Y011472D02*
X003087Y011472D01*
X003087Y011314D02*
X002971Y011314D01*
X002581Y011314D02*
X000380Y011314D01*
X000380Y011472D02*
X002573Y011472D01*
X003448Y012106D02*
X003684Y012106D01*
X003656Y011948D02*
X003484Y011948D01*
X003484Y011789D02*
X003656Y011789D01*
X003493Y012265D02*
X003429Y012265D01*
X002034Y010046D02*
X000380Y010046D01*
X000380Y010204D02*
X000924Y010204D01*
X000824Y010363D02*
X000380Y010363D01*
X000380Y010521D02*
X000824Y010521D01*
X000824Y010680D02*
X000380Y010680D01*
X000380Y010838D02*
X000858Y010838D01*
X000380Y009887D02*
X002005Y009887D01*
X002005Y009729D02*
X000380Y009729D01*
X000380Y009570D02*
X001907Y009570D01*
X001753Y009412D02*
X000380Y009412D01*
X000380Y009253D02*
X000848Y009253D01*
X000824Y009095D02*
X000380Y009095D01*
X000380Y008936D02*
X000824Y008936D01*
X000782Y008778D02*
X000380Y008778D01*
X000380Y008619D02*
X000651Y008619D01*
X000532Y008461D02*
X000380Y008461D01*
X000380Y008302D02*
X000520Y008302D01*
X000520Y008144D02*
X000380Y008144D01*
X000380Y007985D02*
X000520Y007985D01*
X000520Y007827D02*
X000380Y007827D01*
X000380Y007668D02*
X000520Y007668D01*
X000520Y007510D02*
X000380Y007510D01*
X000380Y007351D02*
X000520Y007351D01*
X000520Y007193D02*
X000380Y007193D01*
X000380Y007034D02*
X000520Y007034D01*
X000520Y006876D02*
X000380Y006876D01*
X000380Y006717D02*
X000520Y006717D01*
X000520Y006559D02*
X000380Y006559D01*
X000380Y006400D02*
X000520Y006400D01*
X000520Y006242D02*
X000380Y006242D01*
X000380Y006083D02*
X000520Y006083D01*
X000520Y005925D02*
X000380Y005925D01*
X000380Y005766D02*
X000520Y005766D01*
X000520Y005608D02*
X000380Y005608D01*
X000380Y005449D02*
X000520Y005449D01*
X000520Y005291D02*
X000380Y005291D01*
X000380Y005132D02*
X000520Y005132D01*
X000520Y004974D02*
X000380Y004974D01*
X000380Y004815D02*
X000520Y004815D01*
X000520Y004657D02*
X000380Y004657D01*
X000380Y004498D02*
X000520Y004498D01*
X000520Y004340D02*
X000380Y004340D01*
X000380Y004181D02*
X000520Y004181D01*
X000520Y004023D02*
X000380Y004023D01*
X000380Y003864D02*
X000520Y003864D01*
X000520Y003706D02*
X000380Y003706D01*
X000380Y003547D02*
X000589Y003547D01*
X000686Y003389D02*
X000380Y003389D01*
X000380Y003230D02*
X000686Y003230D01*
X000703Y003072D02*
X000380Y003072D01*
X000380Y002913D02*
X000703Y002913D01*
X000703Y002755D02*
X000380Y002755D01*
X000380Y002596D02*
X000726Y002596D01*
X000723Y002438D02*
X000380Y002438D01*
X000380Y002279D02*
X000723Y002279D01*
X000830Y002121D02*
X000380Y002121D01*
X000380Y001962D02*
X001393Y001962D01*
X001380Y002121D02*
X001330Y002121D01*
X001080Y002121D02*
X001080Y002121D01*
X001080Y002279D02*
X001080Y002279D01*
X001437Y002438D02*
X001530Y002438D01*
X001871Y002438D02*
X001889Y002438D01*
X001889Y002279D02*
X001871Y002279D01*
X001871Y002121D02*
X001889Y002121D01*
X002230Y002438D02*
X002502Y002438D01*
X002400Y002279D02*
X002340Y002279D01*
X001632Y001645D02*
X000380Y001645D01*
X000380Y001487D02*
X001551Y001487D01*
X001420Y001328D02*
X000380Y001328D01*
X000380Y001170D02*
X001360Y001170D01*
X001360Y001011D02*
X000380Y001011D01*
X000380Y000853D02*
X001411Y000853D01*
X001531Y000694D02*
X000380Y000694D01*
X000380Y001804D02*
X001463Y001804D01*
X002349Y000853D02*
X002411Y000853D01*
X002531Y000694D02*
X002229Y000694D01*
X003229Y000694D02*
X003531Y000694D01*
X003411Y000853D02*
X003349Y000853D01*
X004229Y000694D02*
X004673Y000694D01*
X004522Y000853D02*
X004349Y000853D01*
X003400Y002279D02*
X003360Y002279D01*
X003258Y002438D02*
X003502Y002438D01*
X003021Y003072D02*
X001457Y003072D01*
X001457Y002913D02*
X004286Y002913D01*
X004270Y003730D02*
X004298Y003797D01*
X004298Y003963D01*
X004234Y004117D01*
X004117Y004234D01*
X003963Y004298D01*
X003874Y004298D01*
X003874Y004408D01*
X003961Y004496D01*
X003986Y004471D01*
X004322Y004807D01*
X003986Y004471D01*
X004067Y004390D01*
X004067Y004362D01*
X004290Y004140D01*
X004290Y004140D01*
X004513Y003917D01*
X004701Y003730D01*
X004270Y003730D01*
X004298Y003864D02*
X004567Y003864D01*
X004513Y003917D02*
X004513Y003917D01*
X004408Y004023D02*
X004274Y004023D01*
X004249Y004181D02*
X004170Y004181D01*
X004090Y004340D02*
X003874Y004340D01*
X004014Y004498D02*
X004014Y004498D01*
X004172Y004657D02*
X004172Y004657D01*
X004322Y004807D02*
X004322Y004807D01*
X004322Y004807D01*
X004657Y005144D01*
X004322Y004807D01*
X004330Y004815D02*
X004330Y004815D01*
X004488Y004974D02*
X004488Y004974D01*
X004646Y005132D02*
X004646Y005132D01*
X004669Y005132D02*
X004696Y005132D01*
X004756Y005291D02*
X004855Y005291D01*
X004914Y005449D02*
X005013Y005449D01*
X005073Y005608D02*
X005172Y005608D01*
X005231Y005766D02*
X005330Y005766D01*
X005390Y005925D02*
X005833Y005925D01*
X006080Y005580D02*
X005540Y005580D01*
X004545Y004585D01*
X004768Y004368D02*
X005480Y005080D01*
X005680Y005080D01*
X004768Y004368D02*
X004768Y004363D01*
X005214Y003918D02*
X005218Y003918D01*
X004099Y005029D02*
X006365Y007295D01*
X006380Y007280D01*
X006365Y007295D02*
X006380Y007311D01*
X006380Y008180D01*
X007323Y008264D02*
X007982Y008924D01*
X007980Y009424D01*
X008261Y009095D02*
X009100Y009095D01*
X009100Y008936D02*
X008262Y008936D01*
X008225Y008778D02*
X009100Y008778D01*
X009100Y008619D02*
X008073Y008619D01*
X007915Y008461D02*
X009100Y008461D01*
X009100Y008302D02*
X007986Y008302D01*
X008024Y008265D02*
X008024Y008265D01*
X008146Y008144D02*
X009100Y008144D01*
X009100Y007985D02*
X008305Y007985D01*
X008247Y008043D02*
X008247Y008043D01*
X008464Y007827D02*
X009100Y007827D01*
X009100Y007668D02*
X008623Y007668D01*
X008693Y007598D02*
X008693Y007598D01*
X008782Y007510D02*
X009100Y007510D01*
X009100Y007351D02*
X008941Y007351D01*
X008916Y007376D02*
X008916Y007376D01*
X009080Y007280D02*
X009080Y006904D01*
X008884Y006708D01*
X008735Y006559D02*
X008735Y006559D01*
X008577Y006400D02*
X008577Y006400D01*
X009100Y007193D02*
X009100Y007193D01*
X009768Y006400D02*
X010667Y006400D01*
X010667Y006559D02*
X009926Y006559D01*
X010085Y006717D02*
X010667Y006717D01*
X011736Y008056D02*
X011736Y008442D01*
X011619Y008559D01*
X011327Y008559D01*
X011737Y008970D01*
X011730Y008923D01*
X011730Y008900D01*
X012260Y008900D01*
X012260Y008860D01*
X011730Y008860D01*
X011730Y008837D01*
X011744Y008751D01*
X011770Y008669D01*
X011810Y008592D01*
X011860Y008522D01*
X011922Y008460D01*
X011992Y008410D01*
X012026Y008392D01*
X011957Y008363D01*
X011797Y008203D01*
X011736Y008056D01*
X011736Y008144D02*
X011772Y008144D01*
X011736Y008302D02*
X011896Y008302D01*
X011922Y008461D02*
X011717Y008461D01*
X011796Y008619D02*
X011387Y008619D01*
X011545Y008778D02*
X011739Y008778D01*
X011732Y008936D02*
X011704Y008936D01*
X011285Y009253D02*
X010531Y009253D01*
X010555Y009095D02*
X011127Y009095D01*
X010968Y008936D02*
X010555Y008936D01*
X010667Y009729D02*
X009339Y009729D01*
X009211Y009887D02*
X010667Y009887D01*
X010695Y010046D02*
X009083Y010046D01*
X008955Y010204D02*
X009585Y010204D01*
X009486Y010363D02*
X009154Y010363D01*
X009267Y010521D02*
X009486Y010521D01*
X009486Y010680D02*
X009298Y010680D01*
X008924Y010724D02*
X008924Y011180D01*
X008586Y011314D02*
X008179Y011314D01*
X008100Y011472D02*
X008618Y011472D01*
X008924Y010724D02*
X008880Y010680D01*
X008364Y010046D02*
X008337Y010046D01*
X008337Y009887D02*
X008492Y009887D01*
X008619Y009729D02*
X008325Y009729D01*
X008357Y009570D02*
X008747Y009570D01*
X008875Y009412D02*
X008357Y009412D01*
X008357Y009253D02*
X009003Y009253D01*
X010455Y010204D02*
X011798Y010204D01*
X011732Y010046D02*
X011707Y010046D01*
X011956Y010363D02*
X010555Y010363D01*
X010698Y010997D02*
X010713Y010997D01*
X011047Y010997D02*
X012850Y010997D01*
X012850Y011155D02*
X011239Y011155D01*
X011298Y011314D02*
X012850Y011314D01*
X012850Y011472D02*
X011294Y011472D01*
X011221Y011631D02*
X012850Y011631D01*
X012850Y011789D02*
X010985Y011789D01*
X010812Y011948D02*
X012850Y011948D01*
X012850Y012106D02*
X010768Y012106D01*
X010761Y012265D02*
X012850Y012265D01*
X011021Y012582D02*
X008939Y012582D01*
X008940Y012740D02*
X011020Y012740D01*
X011020Y012899D02*
X008940Y012899D01*
X008940Y013216D02*
X011020Y013216D01*
X011020Y013374D02*
X008940Y013374D01*
X008485Y012899D02*
X008325Y012899D01*
X008325Y012740D02*
X008485Y012740D01*
X008485Y012582D02*
X008325Y012582D01*
X007871Y013216D02*
X000380Y013216D01*
X000380Y013374D02*
X007871Y013374D01*
X009468Y012392D02*
X009468Y012308D01*
X009468Y012308D01*
X009468Y012392D01*
X004763Y007592D02*
X003980Y008374D01*
X003436Y008536D02*
X003436Y008780D01*
X003436Y008536D02*
X003080Y008180D01*
X003080Y006047D01*
X003653Y005474D01*
X004099Y005029D02*
X003536Y004467D01*
X003536Y004380D01*
X003536Y004224D01*
X003880Y003880D01*
X003024Y004380D02*
X002580Y004380D01*
X003024Y004400D02*
X003024Y004380D01*
X002544Y003520D02*
X002544Y003471D01*
X002536Y003471D01*
X002536Y003520D01*
X002544Y003520D01*
X002536Y003389D02*
X002544Y003389D01*
X002536Y003230D02*
X002544Y003230D01*
X002038Y003230D02*
X001874Y003230D01*
X001874Y003389D02*
X002025Y003389D01*
X004480Y006380D02*
X004480Y006538D01*
X004096Y006923D01*
X003873Y006699D02*
X003861Y006699D01*
X003480Y007080D01*
X003480Y007280D01*
X002924Y008780D02*
X002380Y008780D01*
X002924Y008780D02*
X002924Y009280D01*
X003074Y009729D02*
X003403Y009729D01*
X003436Y009570D02*
X003436Y009570D01*
X003436Y009412D02*
X003436Y009412D01*
X001359Y008979D02*
X001220Y008840D01*
X001160Y008780D01*
X001080Y008680D01*
X000924Y008524D01*
X001380Y008080D02*
X001380Y007426D01*
X001359Y007404D01*
D25*
X001380Y008080D03*
X002380Y008780D03*
X003480Y007280D03*
X004480Y006380D03*
X005080Y006580D03*
X005680Y007480D03*
X006080Y005580D03*
X005680Y005080D03*
X006980Y005580D03*
X006380Y002880D03*
X005680Y002380D03*
X003880Y003880D03*
X002580Y004380D03*
X004980Y009680D03*
X004880Y010180D03*
X008880Y010680D03*
X010280Y011080D03*
X010880Y011380D03*
D26*
X012280Y009880D02*
X010980Y008580D01*
X009380Y008580D01*
X010080Y007080D02*
X011680Y007080D01*
X011680Y007280D01*
X012280Y007880D01*
X012280Y006880D02*
X010680Y005280D01*
X010680Y004780D01*
X008880Y004780D01*
X008680Y004980D01*
X008664Y005037D01*
X008442Y004814D02*
X008480Y004780D01*
X008680Y004580D01*
X011680Y004580D01*
X011680Y005280D01*
X012280Y005880D01*
X012280Y004880D02*
X011980Y004580D01*
X011980Y004380D01*
X011080Y004380D01*
X010580Y003880D01*
X008980Y003880D01*
X008280Y004580D01*
X008220Y004591D01*
X007997Y004368D02*
X008080Y004280D01*
X008680Y003680D01*
X010680Y003680D01*
X010880Y003880D01*
X012280Y003880D01*
X012280Y003080D02*
X012280Y002880D01*
X012280Y003080D02*
X008780Y003080D01*
X007780Y004080D01*
X007775Y004145D01*
X007553Y003922D02*
X007580Y003880D01*
X008580Y002880D01*
X010780Y002880D01*
X011780Y001880D01*
X012280Y001880D01*
X012280Y000880D02*
X010680Y002480D01*
X010680Y002680D01*
X008380Y002680D01*
X007380Y003680D01*
X007331Y003699D01*
X007108Y003476D02*
X006780Y003804D01*
X006780Y004180D01*
X008180Y005580D01*
X008680Y005680D02*
X008680Y005480D01*
X008880Y005280D01*
X008887Y005261D01*
X008680Y005680D02*
X010080Y007080D01*
X009107Y006486D02*
X009080Y006480D01*
X007180Y005180D02*
X007180Y004980D01*
X006580Y004380D01*
X006580Y003559D01*
X006886Y003253D01*
X005884Y003251D02*
X005413Y002780D01*
X005136Y002780D01*
X005467Y003280D02*
X005661Y003473D01*
X007180Y005180D02*
X006980Y005380D01*
X006980Y005580D01*
X005080Y006380D02*
X005080Y006580D01*
X005080Y006380D02*
X004580Y005880D01*
X004147Y005980D01*
X003651Y006476D01*
X003876Y005252D02*
X003504Y004880D01*
X003280Y004880D01*
X003024Y004624D01*
X003024Y004400D01*
X003080Y003780D02*
X001836Y003780D01*
X001536Y003480D01*
X001024Y003480D02*
X001024Y002992D01*
X001080Y002936D01*
X001024Y003480D02*
X000780Y003724D01*
X000780Y008380D01*
X001220Y008820D01*
X001220Y008840D01*
X004280Y008480D02*
X004945Y007815D01*
X004985Y007815D01*
X005207Y008038D02*
X004965Y008280D01*
X004780Y008280D01*
X004580Y008480D01*
X004580Y009880D01*
X004880Y010180D01*
X003080Y003780D02*
X003180Y003680D01*
X003180Y003280D01*
D27*
X010180Y006480D03*
D28*
X009380Y009231D02*
X009380Y009280D01*
X005437Y003696D02*
X005222Y003480D01*
X003480Y003480D01*
X003380Y003580D01*
X003380Y003780D01*
X003180Y003980D01*
X002280Y003980D01*
X001980Y004180D01*
X001980Y009307D01*
X002540Y009767D01*
X003180Y003280D02*
X005467Y003280D01*
D29*
X005280Y007080D02*
X004829Y007080D01*
X004540Y007369D01*
X005280Y007080D02*
X005680Y007480D01*
X005980Y007780D01*
X005980Y008180D01*
X005676Y008484D01*
X005652Y008484D01*
X010492Y011768D02*
X010492Y011937D01*
X010492Y011768D02*
X010880Y011380D01*
M02*
