%
M48
M72
T01C0.0100
T02C0.0236
T03C0.0354
T04C0.0400
%
T01
X10180Y6480
T02
X3880Y3880
X2580Y4380
X4480Y6380
X5080Y6580
X5680Y7480
X6080Y5580
X5680Y5080
X6980Y5580
X6380Y2880
X5680Y2380
X3480Y7280
X2380Y8780
X1380Y8080
X4880Y10180
X4980Y9680
X8880Y10680
X10280Y11080
X10880Y11380
T03
X1880Y1080
X1880Y2080
X2880Y2080
X2880Y1080
X3880Y1080
X3880Y2080
T04
X12280Y9880
X12280Y8880
X12280Y7880
X12280Y6880
X12280Y5880
X12280Y4880
X12280Y3880
X12280Y2880
X12280Y1880
X12280Y880
M30
